<svg width="40" height="40" viewBox="0 0 40 40" fill="none" xmlns="http://www.w3.org/2000/svg">
  <rect width="40" height="40" rx="10" fill="url(#paint0_linear)"/>
  <path d="M12 28V14C12 12.8954 12.8954 12 14 12H26C27.1046 12 28 12.8954 28 14V20C28 21.1046 27.1046 22 26 22H18L13.5 27.5C13.1144 27.9713 12.3921 27.9252 12.0645 27.4086C12.022 27.3415 12 27.2646 12 27.186V28Z" fill="white" fill-opacity="0.9"/>
  <circle cx="20" cy="17" r="1.5" fill="#3B82F6"/>
  <circle cx="26" cy="17" r="1.5" fill="#3B82F6"/>
  <path d="M18 20C18 20 19 21.5 21 21.5C23 21.5 24 20 24 20" stroke="#3B82F6" stroke-width="1.5" stroke-linecap="round"/>
  <defs>
    <linearGradient id="paint0_linear" x1="0" y1="0" x2="40" y2="40" gradientUnits="userSpaceOnUse">
      <stop stop-color="#3B82F6"/>
      <stop offset="1" stop-color="#2563EB"/>
    </linearGradient>
  </defs>
</svg>
